<svg xmlns="http://www.w3.org/2000/svg" xmlns:xlink="http://www.w3.org/1999/xlink" viewBox="0 0 85.06 88.63">
  <defs>
    <style>
      .a {
        isolation: isolate;
      }

      .b {
        opacity: 0.75;
      }

      .aa, .ab, .ac, .ad, .ae, .af, .ag, .ah, .ai, .aj, .ak, .al, .am, .an, .ao, .ap, .aq, .ar, .as, .at, .au, .av, .aw, .ax, .ay, .az, .ba, .bb, .c, .d, .e, .f, .g, .h, .i, .j, .k, .l, .m, .n, .o, .p, .q, .r, .s, .t, .u, .v, .w, .x, .y, .z {
        fill: #666;
      }

      .bd, .c, .dg {
        opacity: 0;
      }

      .be, .d {
        opacity: 0.02;
      }

      .bf, .e {
        opacity: 0.04;
      }

      .bg, .f {
        opacity: 0.06;
      }

      .bh, .g {
        opacity: 0.08;
      }

      .bi, .h {
        opacity: 0.1;
      }

      .bj, .i {
        opacity: 0.12;
      }

      .bk, .j {
        opacity: 0.14;
      }

      .bl, .k {
        opacity: 0.16;
      }

      .bm, .l {
        opacity: 0.18;
      }

      .bn, .m {
        opacity: 0.2;
      }

      .bo, .n {
        opacity: 0.22;
      }

      .bp, .o {
        opacity: 0.24;
      }

      .bq, .p {
        opacity: 0.25;
      }

      .br, .q {
        opacity: 0.27;
      }

      .bs, .r {
        opacity: 0.29;
      }

      .bt, .s {
        opacity: 0.31;
      }

      .bu, .t {
        opacity: 0.33;
      }

      .bv, .u {
        opacity: 0.35;
      }

      .bw, .v {
        opacity: 0.37;
      }

      .bx, .w {
        opacity: 0.39;
      }

      .by, .x {
        opacity: 0.41;
      }

      .bz, .y {
        opacity: 0.43;
      }

      .ca, .z {
        opacity: 0.45;
      }

      .aa, .cb {
        opacity: 0.47;
      }

      .ab, .cc {
        opacity: 0.49;
      }

      .ac, .cd {
        opacity: 0.51;
      }

      .ad, .ce {
        opacity: 0.53;
      }

      .ae, .cf {
        opacity: 0.55;
      }

      .af, .cg {
        opacity: 0.57;
      }

      .ag, .ch {
        opacity: 0.59;
      }

      .ah, .ci {
        opacity: 0.61;
      }

      .ai, .cj {
        opacity: 0.63;
      }

      .aj, .ck {
        opacity: 0.65;
      }

      .ak, .cl {
        opacity: 0.67;
      }

      .al, .cm {
        opacity: 0.69;
      }

      .am, .cn {
        opacity: 0.71;
      }

      .an, .co {
        opacity: 0.73;
      }

      .ao, .cp {
        opacity: 0.75;
      }

      .ap, .cq {
        opacity: 0.76;
      }

      .aq, .cr {
        opacity: 0.78;
      }

      .ar, .cs {
        opacity: 0.8;
      }

      .as, .ct {
        opacity: 0.82;
      }

      .at, .cu {
        opacity: 0.84;
      }

      .au, .cv {
        opacity: 0.86;
      }

      .av, .cw {
        opacity: 0.88;
      }

      .aw, .cx {
        opacity: 0.9;
      }

      .ax, .cy {
        opacity: 0.92;
      }

      .ay, .cz {
        opacity: 0.94;
      }

      .az, .da {
        opacity: 0.96;
      }

      .ba, .db {
        opacity: 0.98;
      }

      .bc, .de {
        mix-blend-mode: overlay;
      }

      .bd, .be, .bf, .bg, .bh, .bi, .bj, .bk, .bl, .bm, .bn, .bo, .bp, .bq, .br, .bs, .bt, .bu, .bv, .bw, .bx, .by, .bz, .ca, .cb, .cc, .cd, .ce, .cf, .cg, .ch, .ci, .cj, .ck, .cl, .cm, .cn, .co, .cp, .cq, .cr, .cs, .ct, .cu, .cv, .cw, .cx, .cy, .cz, .da, .db, .dc {
        fill: #b2b2b2;
      }

      .dd {
        fill: url(#a);
      }

      .de {
        fill: #8c8c8c;
      }

      .df {
        mix-blend-mode: color-dodge;
      }

      .dh {
        fill: #0c0c0c;
        opacity: 0.05;
      }

      .di {
        fill: #181818;
        opacity: 0.1;
      }

      .dj {
        fill: #242424;
        opacity: 0.14;
      }

      .dk {
        fill: #313131;
        opacity: 0.19;
      }

      .dl {
        fill: #3d3d3d;
        opacity: 0.24;
      }

      .dm {
        fill: #494949;
        opacity: 0.29;
      }

      .dn {
        fill: #555;
        opacity: 0.33;
      }

      .do {
        fill: #616161;
        opacity: 0.38;
      }

      .dp {
        fill: #6d6d6d;
        opacity: 0.43;
      }

      .dq {
        fill: #797979;
        opacity: 0.48;
      }

      .dr {
        fill: #868686;
        opacity: 0.52;
      }

      .ds {
        fill: #929292;
        opacity: 0.57;
      }

      .dt {
        fill: #9e9e9e;
        opacity: 0.62;
      }

      .du {
        fill: #aaa;
        opacity: 0.67;
      }

      .dv {
        fill: #b6b6b6;
        opacity: 0.71;
      }

      .dw {
        fill: #c2c2c2;
        opacity: 0.76;
      }

      .dx {
        fill: #cecece;
        opacity: 0.81;
      }

      .dy {
        fill: #dbdbdb;
        opacity: 0.86;
      }

      .dz {
        fill: #e7e7e7;
        opacity: 0.9;
      }

      .ea {
        fill: #f3f3f3;
        opacity: 0.95;
      }

      .eb {
        fill: #fff;
      }

      .ec {
        fill: none;
      }
    </style>
    <radialGradient id="a" cx="-528.09" cy="-263.61" r="1189.91" gradientTransform="translate(90.11 20.24) scale(0.04)" gradientUnits="userSpaceOnUse">
      <stop offset="0" stop-color="#fff"/>
      <stop offset="0.35" stop-color="#e6e6e6"/>
      <stop offset="0.76" stop-color="#878a91"/>
      <stop offset="0.95" stop-color="#d4d4d4"/>
    </radialGradient>
  </defs>
  <title>ball</title>
  <g class="a">
    <g>
      <g>
        <g class="b">
          <path class="c" d="M123.09,36.75A39,39,0,1,1,84.14-2.19,39,39,0,0,1,123.09,36.75Z" transform="translate(-38.02 12.93)"/>
          <path class="d" d="M122.57,36.75A38.43,38.43,0,1,1,84.14-1.67,38.43,38.43,0,0,1,122.57,36.75Z" transform="translate(-38.02 12.93)"/>
          <path class="e" d="M122.05,36.75A37.91,37.91,0,1,1,84.14-1.15,37.91,37.91,0,0,1,122.05,36.75Z" transform="translate(-38.02 12.93)"/>
          <path class="f" d="M121.53,36.75A37.39,37.39,0,1,1,84.14-.64,37.39,37.39,0,0,1,121.53,36.75Z" transform="translate(-38.02 12.93)"/>
          <path class="g" d="M121,36.75A36.87,36.87,0,1,1,84.14-.12,36.87,36.87,0,0,1,121,36.75Z" transform="translate(-38.02 12.93)"/>
          <path class="h" d="M120.49,36.75A36.36,36.36,0,1,1,84.14.4,36.35,36.35,0,0,1,120.49,36.75Z" transform="translate(-38.02 12.93)"/>
          <path class="i" d="M120,36.75A35.84,35.84,0,1,1,84.14.92,35.83,35.83,0,0,1,120,36.75Z" transform="translate(-38.02 12.93)"/>
          <path class="j" d="M119.45,36.75A35.32,35.32,0,1,1,84.14,1.44,35.31,35.31,0,0,1,119.45,36.75Z" transform="translate(-38.02 12.93)"/>
          <path class="k" d="M118.93,36.75A34.8,34.8,0,1,1,84.14,2,34.79,34.79,0,0,1,118.93,36.75Z" transform="translate(-38.02 12.93)"/>
          <path class="l" d="M118.41,36.75A34.28,34.28,0,1,1,84.14,2.48,34.27,34.27,0,0,1,118.41,36.75Z" transform="translate(-38.02 12.93)"/>
          <path class="m" d="M117.89,36.75A33.76,33.76,0,1,1,84.14,3,33.76,33.76,0,0,1,117.89,36.75Z" transform="translate(-38.02 12.93)"/>
          <path class="n" d="M117.37,36.75A33.24,33.24,0,1,1,84.14,3.52,33.24,33.24,0,0,1,117.37,36.75Z" transform="translate(-38.02 12.93)"/>
          <path class="o" d="M116.85,36.75A32.72,32.72,0,1,1,84.14,4,32.71,32.71,0,0,1,116.85,36.75Z" transform="translate(-38.02 12.93)"/>
          <path class="p" d="M116.33,36.75A32.2,32.2,0,1,1,84.14,4.56,32.2,32.2,0,0,1,116.33,36.75Z" transform="translate(-38.02 12.93)"/>
          <path class="q" d="M115.81,36.75A31.68,31.68,0,1,1,84.14,5.08,31.67,31.67,0,0,1,115.81,36.75Z" transform="translate(-38.02 12.93)"/>
          <path class="r" d="M115.3,36.75A31.16,31.16,0,1,1,84.14,5.6,31.16,31.16,0,0,1,115.3,36.75Z" transform="translate(-38.02 12.93)"/>
          <path class="s" d="M114.78,36.75A30.64,30.64,0,1,1,84.14,6.12,30.64,30.64,0,0,1,114.78,36.75Z" transform="translate(-38.02 12.93)"/>
          <path class="t" d="M114.26,36.75A30.12,30.12,0,1,1,84.14,6.64,30.12,30.12,0,0,1,114.26,36.75Z" transform="translate(-38.02 12.93)"/>
          <path class="u" d="M113.74,36.75A29.6,29.6,0,1,1,84.14,7.16,29.6,29.6,0,0,1,113.74,36.75Z" transform="translate(-38.02 12.93)"/>
          <path class="v" d="M113.22,36.75A29.08,29.08,0,1,1,84.14,7.67,29.08,29.08,0,0,1,113.22,36.75Z" transform="translate(-38.02 12.93)"/>
          <path class="w" d="M112.7,36.75A28.56,28.56,0,1,1,84.14,8.19,28.56,28.56,0,0,1,112.7,36.75Z" transform="translate(-38.02 12.93)"/>
          <path class="x" d="M112.18,36.75a28,28,0,1,1-28-28A28,28,0,0,1,112.18,36.75Z" transform="translate(-38.02 12.93)"/>
          <path class="y" d="M111.66,36.75A27.52,27.52,0,1,1,84.14,9.23,27.52,27.52,0,0,1,111.66,36.75Z" transform="translate(-38.02 12.93)"/>
          <path class="z" d="M111.14,36.75a27,27,0,1,1-27-27A27,27,0,0,1,111.14,36.75Z" transform="translate(-38.02 12.93)"/>
          <path class="aa" d="M110.62,36.75A26.48,26.48,0,1,1,84.14,10.27,26.48,26.48,0,0,1,110.62,36.75Z" transform="translate(-38.02 12.93)"/>
          <path class="ab" d="M110.1,36.75a26,26,0,1,1-26-26A26,26,0,0,1,110.1,36.75Z" transform="translate(-38.02 12.93)"/>
          <path class="ac" d="M109.58,36.75A25.45,25.45,0,1,1,84.14,11.31,25.44,25.44,0,0,1,109.58,36.75Z" transform="translate(-38.02 12.93)"/>
          <path class="ad" d="M109.06,36.75A24.93,24.93,0,1,1,84.14,11.83,24.93,24.93,0,0,1,109.06,36.75Z" transform="translate(-38.02 12.93)"/>
          <path class="ae" d="M108.54,36.75a24.41,24.41,0,1,1-24.4-24.4A24.4,24.4,0,0,1,108.54,36.75Z" transform="translate(-38.02 12.93)"/>
          <path class="af" d="M108,36.75A23.89,23.89,0,1,1,84.14,12.87,23.89,23.89,0,0,1,108,36.75Z" transform="translate(-38.02 12.93)"/>
          <path class="ag" d="M107.5,36.75A23.37,23.37,0,1,1,84.14,13.39,23.36,23.36,0,0,1,107.5,36.75Z" transform="translate(-38.02 12.93)"/>
          <path class="ah" d="M107,36.75A22.85,22.85,0,1,1,84.14,13.91,22.84,22.84,0,0,1,107,36.75Z" transform="translate(-38.02 12.93)"/>
          <path class="ai" d="M106.46,36.75A22.33,22.33,0,1,1,84.14,14.43,22.32,22.32,0,0,1,106.46,36.75Z" transform="translate(-38.02 12.93)"/>
          <path class="aj" d="M106,36.75A21.81,21.81,0,1,1,84.14,15,21.81,21.81,0,0,1,106,36.75Z" transform="translate(-38.02 12.93)"/>
          <path class="ak" d="M105.43,36.75A21.29,21.29,0,1,1,84.14,15.47,21.29,21.29,0,0,1,105.43,36.75Z" transform="translate(-38.02 12.93)"/>
          <path class="al" d="M104.91,36.75A20.77,20.77,0,1,1,84.14,16,20.77,20.77,0,0,1,104.91,36.75Z" transform="translate(-38.02 12.93)"/>
          <path class="am" d="M104.39,36.75A20.25,20.25,0,1,1,84.14,16.5,20.25,20.25,0,0,1,104.39,36.75Z" transform="translate(-38.02 12.93)"/>
          <path class="an" d="M103.87,36.75A19.73,19.73,0,1,1,84.14,17,19.73,19.73,0,0,1,103.87,36.75Z" transform="translate(-38.02 12.93)"/>
          <path class="ao" d="M103.35,36.75A19.21,19.21,0,1,1,84.14,17.54,19.21,19.21,0,0,1,103.35,36.75Z" transform="translate(-38.02 12.93)"/>
          <path class="ap" d="M102.83,36.75A18.69,18.69,0,1,1,84.14,18.06,18.69,18.69,0,0,1,102.83,36.75Z" transform="translate(-38.02 12.93)"/>
          <path class="aq" d="M102.31,36.75A18.17,18.17,0,1,1,84.14,18.58,18.17,18.17,0,0,1,102.31,36.75Z" transform="translate(-38.02 12.93)"/>
          <path class="ar" d="M101.79,36.75A17.65,17.65,0,1,1,84.14,19.1,17.65,17.65,0,0,1,101.79,36.75Z" transform="translate(-38.02 12.93)"/>
          <path class="as" d="M101.27,36.75A17.13,17.13,0,1,1,84.14,19.62,17.12,17.12,0,0,1,101.27,36.75Z" transform="translate(-38.02 12.93)"/>
          <path class="at" d="M100.75,36.75A16.61,16.61,0,1,1,84.14,20.14,16.62,16.62,0,0,1,100.75,36.75Z" transform="translate(-38.02 12.93)"/>
          <path class="au" d="M100.23,36.75A16.09,16.09,0,1,1,84.14,20.66,16.09,16.09,0,0,1,100.23,36.75Z" transform="translate(-38.02 12.93)"/>
          <path class="av" d="M99.71,36.75A15.58,15.58,0,1,1,84.14,21.18,15.57,15.57,0,0,1,99.71,36.75Z" transform="translate(-38.02 12.93)"/>
          <path class="aw" d="M99.19,36.75a15.06,15.06,0,1,1-15-15A15.05,15.05,0,0,1,99.19,36.75Z" transform="translate(-38.02 12.93)"/>
          <path class="ax" d="M98.67,36.75A14.54,14.54,0,1,1,84.14,22.22,14.53,14.53,0,0,1,98.67,36.75Z" transform="translate(-38.02 12.93)"/>
          <path class="ay" d="M98.15,36.75a14,14,0,1,1-14-14A14,14,0,0,1,98.15,36.75Z" transform="translate(-38.02 12.93)"/>
          <path class="az" d="M97.63,36.75A13.5,13.5,0,1,1,84.14,23.26,13.49,13.49,0,0,1,97.63,36.75Z" transform="translate(-38.02 12.93)"/>
          <path class="ba" d="M97.11,36.75a13,13,0,1,1-13-13A13,13,0,0,1,97.11,36.75Z" transform="translate(-38.02 12.93)"/>
          <path class="bb" d="M96.6,36.75A12.46,12.46,0,1,1,84.14,24.3,12.46,12.46,0,0,1,96.6,36.75Z" transform="translate(-38.02 12.93)"/>
        </g>
        <g class="bc">
          <path class="bd" d="M112.66,36.75A28.53,28.53,0,1,1,84.14,8.22,28.52,28.52,0,0,1,112.66,36.75Z" transform="translate(-38.02 12.93)"/>
          <path class="be" d="M112.28,36.75A28.15,28.15,0,1,1,84.14,8.6,28.14,28.14,0,0,1,112.28,36.75Z" transform="translate(-38.02 12.93)"/>
          <path class="bf" d="M111.9,36.75A27.77,27.77,0,1,1,84.14,9,27.76,27.76,0,0,1,111.9,36.75Z" transform="translate(-38.02 12.93)"/>
          <path class="bg" d="M111.52,36.75A27.39,27.39,0,1,1,84.14,9.37,27.38,27.38,0,0,1,111.52,36.75Z" transform="translate(-38.02 12.93)"/>
          <path class="bh" d="M111.14,36.75a27,27,0,1,1-27-27A27,27,0,0,1,111.14,36.75Z" transform="translate(-38.02 12.93)"/>
          <path class="bi" d="M110.76,36.75A26.63,26.63,0,1,1,84.14,10.13,26.62,26.62,0,0,1,110.76,36.75Z" transform="translate(-38.02 12.93)"/>
          <path class="bj" d="M110.38,36.75A26.25,26.25,0,1,1,84.14,10.51,26.24,26.24,0,0,1,110.38,36.75Z" transform="translate(-38.02 12.93)"/>
          <path class="bk" d="M110,36.75A25.87,25.87,0,1,1,84.14,10.89,25.86,25.86,0,0,1,110,36.75Z" transform="translate(-38.02 12.93)"/>
          <path class="bl" d="M109.62,36.75A25.49,25.49,0,1,1,84.14,11.27,25.48,25.48,0,0,1,109.62,36.75Z" transform="translate(-38.02 12.93)"/>
          <path class="bm" d="M109.24,36.75a25.11,25.11,0,1,1-25.1-25.1A25.11,25.11,0,0,1,109.24,36.75Z" transform="translate(-38.02 12.93)"/>
          <path class="bn" d="M108.86,36.75A24.73,24.73,0,1,1,84.14,12,24.73,24.73,0,0,1,108.86,36.75Z" transform="translate(-38.02 12.93)"/>
          <path class="bo" d="M108.48,36.75A24.35,24.35,0,1,1,84.14,12.41,24.35,24.35,0,0,1,108.48,36.75Z" transform="translate(-38.02 12.93)"/>
          <path class="bp" d="M108.1,36.75a24,24,0,1,1-24-24A24,24,0,0,1,108.1,36.75Z" transform="translate(-38.02 12.93)"/>
          <path class="bq" d="M107.72,36.75A23.58,23.58,0,1,1,84.14,13.17,23.59,23.59,0,0,1,107.72,36.75Z" transform="translate(-38.02 12.93)"/>
          <path class="br" d="M107.34,36.75a23.2,23.2,0,1,1-23.2-23.2A23.2,23.2,0,0,1,107.34,36.75Z" transform="translate(-38.02 12.93)"/>
          <path class="bs" d="M107,36.75A22.82,22.82,0,1,1,84.14,13.93,22.82,22.82,0,0,1,107,36.75Z" transform="translate(-38.02 12.93)"/>
          <path class="bt" d="M106.58,36.75A22.44,22.44,0,1,1,84.14,14.31,22.44,22.44,0,0,1,106.58,36.75Z" transform="translate(-38.02 12.93)"/>
          <path class="bu" d="M106.2,36.75A22.06,22.06,0,1,1,84.14,14.69,22.06,22.06,0,0,1,106.2,36.75Z" transform="translate(-38.02 12.93)"/>
          <path class="bv" d="M105.82,36.75A21.68,21.68,0,1,1,84.14,15.07,21.68,21.68,0,0,1,105.82,36.75Z" transform="translate(-38.02 12.93)"/>
          <path class="bw" d="M105.44,36.75a21.3,21.3,0,1,1-21.3-21.3A21.3,21.3,0,0,1,105.44,36.75Z" transform="translate(-38.02 12.93)"/>
          <path class="bx" d="M105.05,36.75A20.92,20.92,0,1,1,84.14,15.83,20.92,20.92,0,0,1,105.05,36.75Z" transform="translate(-38.02 12.93)"/>
          <path class="by" d="M104.67,36.75A20.54,20.54,0,1,1,84.14,16.22,20.54,20.54,0,0,1,104.67,36.75Z" transform="translate(-38.02 12.93)"/>
          <path class="bz" d="M104.29,36.75A20.16,20.16,0,1,1,84.14,16.6,20.16,20.16,0,0,1,104.29,36.75Z" transform="translate(-38.02 12.93)"/>
          <path class="ca" d="M103.91,36.75A19.78,19.78,0,1,1,84.14,17,19.78,19.78,0,0,1,103.91,36.75Z" transform="translate(-38.02 12.93)"/>
          <path class="cb" d="M103.53,36.75A19.4,19.4,0,1,1,84.14,17.36,19.4,19.4,0,0,1,103.53,36.75Z" transform="translate(-38.02 12.93)"/>
          <path class="cc" d="M103.15,36.75a19,19,0,1,1-19-19A19,19,0,0,1,103.15,36.75Z" transform="translate(-38.02 12.93)"/>
          <path class="cd" d="M102.77,36.75A18.64,18.64,0,1,1,84.14,18.12,18.64,18.64,0,0,1,102.77,36.75Z" transform="translate(-38.02 12.93)"/>
          <path class="ce" d="M102.39,36.75A18.26,18.26,0,1,1,84.14,18.5,18.26,18.26,0,0,1,102.39,36.75Z" transform="translate(-38.02 12.93)"/>
          <path class="cf" d="M102,36.75A17.88,17.88,0,1,1,84.14,18.88,17.88,17.88,0,0,1,102,36.75Z" transform="translate(-38.02 12.93)"/>
          <path class="cg" d="M101.63,36.75A17.5,17.5,0,1,1,84.14,19.26,17.5,17.5,0,0,1,101.63,36.75Z" transform="translate(-38.02 12.93)"/>
          <path class="ch" d="M101.25,36.75A17.12,17.12,0,1,1,84.14,19.64,17.12,17.12,0,0,1,101.25,36.75Z" transform="translate(-38.02 12.93)"/>
          <path class="ci" d="M100.87,36.75A16.74,16.74,0,1,1,84.14,20,16.74,16.74,0,0,1,100.87,36.75Z" transform="translate(-38.02 12.93)"/>
          <path class="cj" d="M100.49,36.75A16.35,16.35,0,1,1,84.14,20.4,16.36,16.36,0,0,1,100.49,36.75Z" transform="translate(-38.02 12.93)"/>
          <path class="ck" d="M100.11,36.75a16,16,0,1,1-16-16A16,16,0,0,1,100.11,36.75Z" transform="translate(-38.02 12.93)"/>
          <path class="cl" d="M99.73,36.75A15.59,15.59,0,1,1,84.14,21.16,15.6,15.6,0,0,1,99.73,36.75Z" transform="translate(-38.02 12.93)"/>
          <path class="cm" d="M99.35,36.75A15.21,15.21,0,1,1,84.14,21.54,15.22,15.22,0,0,1,99.35,36.75Z" transform="translate(-38.02 12.93)"/>
          <path class="cn" d="M99,36.75A14.83,14.83,0,1,1,84.14,21.92,14.84,14.84,0,0,1,99,36.75Z" transform="translate(-38.02 12.93)"/>
          <path class="co" d="M98.59,36.75A14.45,14.45,0,1,1,84.14,22.3,14.46,14.46,0,0,1,98.59,36.75Z" transform="translate(-38.02 12.93)"/>
          <path class="cp" d="M98.21,36.75A14.07,14.07,0,1,1,84.14,22.68,14.08,14.08,0,0,1,98.21,36.75Z" transform="translate(-38.02 12.93)"/>
          <path class="cq" d="M97.83,36.75A13.69,13.69,0,1,1,84.14,23.06,13.69,13.69,0,0,1,97.83,36.75Z" transform="translate(-38.02 12.93)"/>
          <path class="cr" d="M97.45,36.75a13.31,13.31,0,1,1-13.31-13.3A13.31,13.31,0,0,1,97.45,36.75Z" transform="translate(-38.02 12.93)"/>
          <path class="cs" d="M97.07,36.75A12.93,12.93,0,1,1,84.14,23.83,12.93,12.93,0,0,1,97.07,36.75Z" transform="translate(-38.02 12.93)"/>
          <path class="ct" d="M96.68,36.75A12.55,12.55,0,1,1,84.14,24.21,12.54,12.54,0,0,1,96.68,36.75Z" transform="translate(-38.02 12.93)"/>
          <path class="cu" d="M96.3,36.75A12.17,12.17,0,1,1,84.14,24.59,12.16,12.16,0,0,1,96.3,36.75Z" transform="translate(-38.02 12.93)"/>
          <path class="cv" d="M95.92,36.75A11.79,11.79,0,1,1,84.14,25,11.78,11.78,0,0,1,95.92,36.75Z" transform="translate(-38.02 12.93)"/>
          <path class="cw" d="M95.54,36.75a11.41,11.41,0,1,1-11.4-11.4A11.4,11.4,0,0,1,95.54,36.75Z" transform="translate(-38.02 12.93)"/>
          <path class="cx" d="M95.16,36.75a11,11,0,1,1-11-11A11,11,0,0,1,95.16,36.75Z" transform="translate(-38.02 12.93)"/>
          <path class="cy" d="M94.78,36.75A10.65,10.65,0,1,1,84.14,26.11,10.64,10.64,0,0,1,94.78,36.75Z" transform="translate(-38.02 12.93)"/>
          <path class="cz" d="M94.4,36.75A10.27,10.27,0,1,1,84.14,26.49,10.26,10.26,0,0,1,94.4,36.75Z" transform="translate(-38.02 12.93)"/>
          <path class="da" d="M94,36.75a9.89,9.89,0,1,1-9.88-9.88A9.88,9.88,0,0,1,94,36.75Z" transform="translate(-38.02 12.93)"/>
          <path class="db" d="M93.64,36.75a9.51,9.51,0,1,1-9.5-9.5A9.5,9.5,0,0,1,93.64,36.75Z" transform="translate(-38.02 12.93)"/>
          <path class="dc" d="M93.26,36.75a9.13,9.13,0,1,1-9.12-9.12A9.12,9.12,0,0,1,93.26,36.75Z" transform="translate(-38.02 12.93)"/>
        </g>
      </g>
      <path class="dd" d="M111.41,23.76a36.7,36.7,0,1,1-36.7-36.69A36.69,36.69,0,0,1,111.41,23.76Z" transform="translate(-38.02 12.93)"/>
      <path class="de" d="M110.32,26.4C109.68,6,95.67-3.79,95.67-3.79,96.24.27,87.44-.55,87.44-.55s22.24,6.56,22.88,27Z" transform="translate(-38.02 12.93)"/>
      <g class="bc">
        <path class="bd" d="M100.33,24.22C94.07,34.53,56.72,11.85,63,1.54a21.85,21.85,0,1,1,37.35,22.68Z" transform="translate(-38.02 12.93)"/>
        <path class="be" d="M100.17,23.79C94,33.94,57.27,11.63,63.43,1.48a21.49,21.49,0,0,1,36.74,22.31Z" transform="translate(-38.02 12.93)"/>
        <path class="bf" d="M100,23.37c-6.06,10-42.19-12-36.13-21.94A21.13,21.13,0,1,1,100,23.37Z" transform="translate(-38.02 12.93)"/>
        <path class="bg" d="M99.85,22.94C93.9,32.75,58.37,11.18,64.33,1.37A20.78,20.78,0,0,1,99.85,22.94Z" transform="translate(-38.02 12.93)"/>
        <path class="bh" d="M99.7,22.52C93.84,32.16,58.93,11,64.78,1.31A20.43,20.43,0,0,1,99.7,22.52Z" transform="translate(-38.02 12.93)"/>
        <path class="bi" d="M99.54,22.09C93.78,31.56,59.48,10.73,65.23,1.26A20.07,20.07,0,1,1,99.54,22.09Z" transform="translate(-38.02 12.93)"/>
        <path class="bj" d="M99.38,21.66C93.73,31,60,10.51,65.68,1.2a19.71,19.71,0,0,1,33.7,20.46Z" transform="translate(-38.02 12.93)"/>
        <path class="bk" d="M99.22,21.24c-5.55,9.13-38.63-11-33.08-20.09A19.35,19.35,0,1,1,99.22,21.24Z" transform="translate(-38.02 12.93)"/>
        <path class="bl" d="M99.06,20.81c-5.44,9-37.92-10.75-32.47-19.72A19,19,0,1,1,99.06,20.81Z" transform="translate(-38.02 12.93)"/>
        <path class="bm" d="M98.91,20.39C93.56,29.19,61.69,9.83,67,1A18.64,18.64,0,0,1,98.91,20.39Z" transform="translate(-38.02 12.93)"/>
        <path class="bn" d="M98.75,20C93.5,28.59,62.25,9.61,67.49,1A18.29,18.29,0,0,1,98.75,20Z" transform="translate(-38.02 12.93)"/>
        <path class="bo" d="M98.59,19.53C93.45,28,62.8,9.39,67.94.92A17.93,17.93,0,1,1,98.59,19.53Z" transform="translate(-38.02 12.93)"/>
        <path class="bp" d="M98.43,19.11c-5,8.29-35.08-9.95-30-18.24a17.57,17.57,0,1,1,30,18.24Z" transform="translate(-38.02 12.93)"/>
        <path class="bq" d="M98.27,18.68C93.34,26.81,63.9,8.94,68.84.81A17.22,17.22,0,1,1,98.27,18.68Z" transform="translate(-38.02 12.93)"/>
        <path class="br" d="M98.11,18.26c-4.83,8-33.65-9.55-28.82-17.51A16.86,16.86,0,1,1,98.11,18.26Z" transform="translate(-38.02 12.93)"/>
        <path class="bs" d="M98,17.83C93.22,25.62,65,8.49,69.74.7A16.51,16.51,0,0,1,98,17.83Z" transform="translate(-38.02 12.93)"/>
        <path class="bt" d="M97.8,17.41C93.17,25,65.56,8.26,70.19.64A16.15,16.15,0,1,1,97.8,17.41Z" transform="translate(-38.02 12.93)"/>
        <path class="bu" d="M97.64,17C93.11,24.44,66.12,8,70.64.59A15.79,15.79,0,1,1,97.64,17Z" transform="translate(-38.02 12.93)"/>
        <path class="bv" d="M97.48,16.55c-4.42,7.29-30.81-8.73-26.39-16a15.44,15.44,0,0,1,26.39,16Z" transform="translate(-38.02 12.93)"/>
        <path class="bw" d="M97.32,16.13C93,23.25,67.22,7.59,71.55.47A15.08,15.08,0,1,1,97.32,16.13Z" transform="translate(-38.02 12.93)"/>
        <path class="bx" d="M97.17,15.7C92.94,22.65,67.77,7.37,72,.42A14.72,14.72,0,0,1,97.17,15.7Z" transform="translate(-38.02 12.93)"/>
        <path class="by" d="M97,15.28C92.89,22.06,68.33,7.14,72.45.36A14.37,14.37,0,0,1,97,15.28Z" transform="translate(-38.02 12.93)"/>
        <path class="bz" d="M96.85,14.85c-4,6.62-28-7.93-23.95-14.54A14,14,0,1,1,96.85,14.85Z" transform="translate(-38.02 12.93)"/>
        <path class="ca" d="M96.69,14.42C92.77,20.87,69.43,6.69,73.35.25A13.65,13.65,0,0,1,96.69,14.42Z" transform="translate(-38.02 12.93)"/>
        <path class="cb" d="M96.53,14C92.72,20.28,70,6.47,73.8.19A13.3,13.3,0,1,1,96.53,14Z" transform="translate(-38.02 12.93)"/>
        <path class="cc" d="M96.37,13.57C92.66,19.68,70.54,6.25,74.25.14A12.94,12.94,0,1,1,96.37,13.57Z" transform="translate(-38.02 12.93)"/>
        <path class="cd" d="M96.22,13.15C92.61,19.09,71.09,6,74.7.08A12.59,12.59,0,0,1,96.22,13.15Z" transform="translate(-38.02 12.93)"/>
        <path class="ce" d="M96.06,12.72C92.55,18.5,71.65,5.8,75.15,0A12.23,12.23,0,1,1,96.06,12.72Z" transform="translate(-38.02 12.93)"/>
        <path class="cf" d="M95.9,12.29C92.49,17.9,72.2,5.57,75.6,0A11.87,11.87,0,1,1,95.9,12.29Z" transform="translate(-38.02 12.93)"/>
        <path class="cg" d="M95.74,11.87c-3.3,5.44-23-6.52-19.69-12a11.52,11.52,0,0,1,19.69,12Z" transform="translate(-38.02 12.93)"/>
        <path class="ch" d="M95.58,11.44C92.38,16.71,73.3,5.13,76.5-.14A11.16,11.16,0,1,1,95.58,11.44Z" transform="translate(-38.02 12.93)"/>
        <path class="ci" d="M95.43,11C92.33,16.12,73.86,4.9,77-.2A10.81,10.81,0,1,1,95.43,11Z" transform="translate(-38.02 12.93)"/>
        <path class="cj" d="M95.27,10.59c-3,4.94-20.86-5.91-17.86-10.84A10.45,10.45,0,0,1,95.27,10.59Z" transform="translate(-38.02 12.93)"/>
        <path class="ck" d="M95.11,10.17C92.21,14.93,75,4.45,77.86-.31A10.09,10.09,0,1,1,95.11,10.17Z" transform="translate(-38.02 12.93)"/>
        <path class="cl" d="M95,9.74C92.16,14.34,75.52,4.23,78.31-.37A9.74,9.74,0,0,1,95,9.74Z" transform="translate(-38.02 12.93)"/>
        <path class="cm" d="M94.79,9.31C92.1,13.74,76.07,4,78.76-.42a9.38,9.38,0,1,1,16,9.73Z" transform="translate(-38.02 12.93)"/>
        <path class="cn" d="M94.64,8.89c-2.59,4.26-18-5.11-15.43-9.37A9,9,0,1,1,94.64,8.89Z" transform="translate(-38.02 12.93)"/>
        <path class="co" d="M94.48,8.46c-2.49,4.1-17.31-4.9-14.82-9a8.67,8.67,0,0,1,14.82,9Z" transform="translate(-38.02 12.93)"/>
        <path class="cp" d="M94.32,8C91.93,12,77.73,3.33,80.11-.59A8.31,8.31,0,0,1,94.32,8Z" transform="translate(-38.02 12.93)"/>
        <path class="cq" d="M94.16,7.61c-2.28,3.76-15.88-4.5-13.6-8.26a8,8,0,1,1,13.6,8.26Z" transform="translate(-38.02 12.93)"/>
        <path class="cr" d="M94,7.18c-2.18,3.6-15.17-4.3-13-7.88A7.6,7.6,0,0,1,94,7.18Z" transform="translate(-38.02 12.93)"/>
        <path class="cs" d="M93.84,6.76c-2.08,3.42-14.45-4.1-12.38-7.52A7.24,7.24,0,1,1,93.84,6.76Z" transform="translate(-38.02 12.93)"/>
        <path class="ct" d="M93.69,6.33c-2,3.26-13.75-3.9-11.78-7.14A6.89,6.89,0,1,1,93.69,6.33Z" transform="translate(-38.02 12.93)"/>
        <path class="cu" d="M93.53,5.91C91.65,9,80.49,2.21,82.37-.87A6.53,6.53,0,0,1,93.53,5.91Z" transform="translate(-38.02 12.93)"/>
        <path class="cv" d="M93.37,5.48C91.6,8.4,81.05,2,82.82-.93A6.17,6.17,0,1,1,93.37,5.48Z" transform="translate(-38.02 12.93)"/>
        <path class="cw" d="M93.21,5.05C91.54,7.81,81.6,1.76,83.27-1a5.81,5.81,0,1,1,9.94,6Z" transform="translate(-38.02 12.93)"/>
        <path class="cx" d="M93.05,4.63C91.48,7.21,82.15,1.54,83.72-1a5.46,5.46,0,1,1,9.33,5.67Z" transform="translate(-38.02 12.93)"/>
        <path class="cy" d="M92.9,4.2c-1.47,2.42-10.2-2.89-8.73-5.3A5.11,5.11,0,0,1,92.9,4.2Z" transform="translate(-38.02 12.93)"/>
        <path class="cz" d="M92.74,3.78C91.37,6,83.26,1.09,84.62-1.15a4.75,4.75,0,1,1,8.12,4.93Z" transform="translate(-38.02 12.93)"/>
        <path class="da" d="M92.58,3.35C91.32,5.43,83.81.86,85.07-1.21a4.39,4.39,0,0,1,7.51,4.56Z" transform="translate(-38.02 12.93)"/>
        <path class="db" d="M92.42,2.93c-1.16,1.91-8.06-2.29-6.9-4.19a4,4,0,1,1,6.9,4.19Z" transform="translate(-38.02 12.93)"/>
        <path class="dc" d="M92.26,2.5C91.2,4.24,84.92.42,86-1.32A3.68,3.68,0,0,1,92.26,2.5Z" transform="translate(-38.02 12.93)"/>
      </g>
      <g class="df">
        <path class="dg" d="M78.37-2.45c14.67,5.16-4,58.3-18.7,53.14A28.17,28.17,0,1,1,78.37-2.45Z" transform="translate(-38.02 12.93)"/>
        <path class="dh" d="M77.16-1.69c14.1,5-3.86,56-17.95,51a27,27,0,1,1,17.95-51Z" transform="translate(-38.02 12.93)"/>
        <path class="di" d="M76-.93C89.48,3.82,72.25,52.75,58.75,48A25.93,25.93,0,1,1,76-.93Z" transform="translate(-38.02 12.93)"/>
        <path class="dj" d="M74.76-.17C87.69,4.38,71.21,51.2,58.28,46.65A24.82,24.82,0,1,1,74.76-.17Z" transform="translate(-38.02 12.93)"/>
        <path class="dk" d="M73.56.59c12.35,4.34-3.39,49.06-15.74,44.72A23.7,23.7,0,0,1,73.56.59Z" transform="translate(-38.02 12.93)"/>
        <path class="dl" d="M72.35,1.35C84.12,5.49,69.12,48.1,57.36,44a22.58,22.58,0,1,1,15-42.61Z" transform="translate(-38.02 12.93)"/>
        <path class="dm" d="M71.15,2.11C82.34,6,68.08,46.56,56.9,42.62A21.47,21.47,0,1,1,71.15,2.11Z" transform="translate(-38.02 12.93)"/>
        <path class="dn" d="M70,2.87C80.56,6.6,67,45,56.43,41.27A20.36,20.36,0,0,1,70,2.87Z" transform="translate(-38.02 12.93)"/>
        <path class="do" d="M68.75,3.62C78.77,7.15,66,43.46,56,39.93A19.25,19.25,0,0,1,68.75,3.62Z" transform="translate(-38.02 12.93)"/>
        <path class="dp" d="M67.54,4.38C77,7.71,65,41.91,55.51,38.58a18.13,18.13,0,0,1,12-34.2Z" transform="translate(-38.02 12.93)"/>
        <path class="dq" d="M66.34,5.14c8.87,3.12-2.43,35.22-11.29,32.1A17,17,0,0,1,66.34,5.14Z" transform="translate(-38.02 12.93)"/>
        <path class="dr" d="M65.14,5.9c8.28,2.92-2.27,32.91-10.55,30a15.9,15.9,0,0,1,10.55-30Z" transform="translate(-38.02 12.93)"/>
        <path class="ds" d="M63.93,6.66c7.71,2.71-2.11,30.6-9.81,27.89A14.78,14.78,0,0,1,63.93,6.66Z" transform="translate(-38.02 12.93)"/>
        <path class="dt" d="M62.73,7.42c7.13,2.51-1.95,28.29-9.07,25.78A13.66,13.66,0,0,1,62.73,7.42Z" transform="translate(-38.02 12.93)"/>
        <path class="du" d="M61.53,8.18c6.54,2.3-1.79,26-8.33,23.68A12.55,12.55,0,0,1,61.53,8.18Z" transform="translate(-38.02 12.93)"/>
        <path class="dv" d="M60.33,8.94c6,2.09-1.64,23.67-7.59,21.57A11.43,11.43,0,1,1,60.33,8.94Z" transform="translate(-38.02 12.93)"/>
        <path class="dw" d="M59.12,9.7c5.38,1.89-1.47,21.36-6.84,19.47A10.32,10.32,0,1,1,59.12,9.7Z" transform="translate(-38.02 12.93)"/>
        <path class="dx" d="M57.92,10.46c4.8,1.68-1.31,19.05-6.11,17.36a9.2,9.2,0,1,1,6.11-17.36Z" transform="translate(-38.02 12.93)"/>
        <path class="dy" d="M56.72,11.21C60.94,12.7,55.56,28,51.35,26.48a8.09,8.09,0,0,1,5.37-15.27Z" transform="translate(-38.02 12.93)"/>
        <path class="dz" d="M55.52,12c3.63,1.28-1,14.44-4.63,13.16A7,7,0,1,1,55.52,12Z" transform="translate(-38.02 12.93)"/>
        <path class="ea" d="M54.31,12.73c3.06,1.08-.83,12.13-3.88,11.06a5.86,5.86,0,1,1,3.88-11.06Z" transform="translate(-38.02 12.93)"/>
        <path class="eb" d="M53.11,13.49c2.48.87-.67,9.82-3.15,9a4.74,4.74,0,1,1,3.15-9Z" transform="translate(-38.02 12.93)"/>
      </g>
      <path class="ec" d="M111.41,23.76a36.7,36.7,0,1,1-36.7-36.69A36.69,36.69,0,0,1,111.41,23.76Z" transform="translate(-38.02 12.93)"/>
    </g>
  </g>
</svg>
