<svg viewBox="0 0 85.06 88.63" xmlns="http://www.w3.org/2000/svg" xmlns:xlink="http://www.w3.org/1999/xlink"><radialGradient id="a" cx="68.9864" cy="9.6956" gradientUnits="userSpaceOnUse" r="47.5964"><stop offset="0" stop-color="#fff"/><stop offset=".35" stop-color="#e6e6e6"/><stop offset=".76" stop-color="#878a91"/><stop offset=".95" stop-color="#d4d4d4"/></radialGradient><g transform="translate(-38.02 12.93)"><g fill="#666" opacity=".75"><path d="m123.09 36.75a39 39 0 1 1 -38.95-38.94 39 39 0 0 1 38.95 38.94z" opacity="0"/><path d="m122.57 36.75a38.43 38.43 0 1 1 -38.43-38.42 38.43 38.43 0 0 1 38.43 38.42z" opacity=".02"/><path d="m122.05 36.75a37.91 37.91 0 1 1 -37.91-37.9 37.91 37.91 0 0 1 37.91 37.9z" opacity=".04"/><path d="m121.53 36.75a37.39 37.39 0 1 1 -37.39-37.39 37.39 37.39 0 0 1 37.39 37.39z" opacity=".06"/><path d="m121 36.75a36.87 36.87 0 1 1 -36.86-36.87 36.87 36.87 0 0 1 36.86 36.87z" opacity=".08"/><path d="m120.49 36.75a36.36 36.36 0 1 1 -36.35-36.35 36.35 36.35 0 0 1 36.35 36.35z" opacity=".1"/><path d="m120 36.75a35.84 35.84 0 1 1 -35.86-35.83 35.83 35.83 0 0 1 35.86 35.83z" opacity=".12"/><path d="m119.45 36.75a35.32 35.32 0 1 1 -35.31-35.31 35.31 35.31 0 0 1 35.31 35.31z" opacity=".14"/><path d="m118.93 36.75a34.8 34.8 0 1 1 -34.79-34.75 34.79 34.79 0 0 1 34.79 34.75z" opacity=".16"/><path d="m118.41 36.75a34.28 34.28 0 1 1 -34.27-34.27 34.27 34.27 0 0 1 34.27 34.27z" opacity=".18"/><path d="m117.89 36.75a33.76 33.76 0 1 1 -33.75-33.75 33.76 33.76 0 0 1 33.75 33.75z" opacity=".2"/><path d="m117.37 36.75a33.24 33.24 0 1 1 -33.23-33.23 33.24 33.24 0 0 1 33.23 33.23z" opacity=".22"/><path d="m116.85 36.75a32.72 32.72 0 1 1 -32.71-32.75 32.71 32.71 0 0 1 32.71 32.75z" opacity=".24"/><path d="m116.33 36.75a32.2 32.2 0 1 1 -32.19-32.19 32.2 32.2 0 0 1 32.19 32.19z" opacity=".25"/><path d="m115.81 36.75a31.68 31.68 0 1 1 -31.67-31.67 31.67 31.67 0 0 1 31.67 31.67z" opacity=".27"/><path d="m115.3 36.75a31.16 31.16 0 1 1 -31.16-31.15 31.16 31.16 0 0 1 31.16 31.15z" opacity=".29"/><path d="m114.78 36.75a30.64 30.64 0 1 1 -30.64-30.63 30.64 30.64 0 0 1 30.64 30.63z" opacity=".31"/><path d="m114.26 36.75a30.12 30.12 0 1 1 -30.12-30.11 30.12 30.12 0 0 1 30.12 30.11z" opacity=".33"/><path d="m113.74 36.75a29.6 29.6 0 1 1 -29.6-29.59 29.6 29.6 0 0 1 29.6 29.59z" opacity=".35"/><path d="m113.22 36.75a29.08 29.08 0 1 1 -29.08-29.08 29.08 29.08 0 0 1 29.08 29.08z" opacity=".37"/><path d="m112.7 36.75a28.56 28.56 0 1 1 -28.56-28.56 28.56 28.56 0 0 1 28.56 28.56z" opacity=".39"/><path d="m112.18 36.75a28 28 0 1 1 -28-28 28 28 0 0 1 28 28z" opacity=".41"/><path d="m111.66 36.75a27.52 27.52 0 1 1 -27.52-27.52 27.52 27.52 0 0 1 27.52 27.52z" opacity=".43"/><path d="m111.14 36.75a27 27 0 1 1 -27-27 27 27 0 0 1 27 27z" opacity=".45"/><path d="m110.62 36.75a26.48 26.48 0 1 1 -26.48-26.48 26.48 26.48 0 0 1 26.48 26.48z" opacity=".47"/><path d="m110.1 36.75a26 26 0 1 1 -26-26 26 26 0 0 1 26 26z" opacity=".49"/><path d="m109.58 36.75a25.45 25.45 0 1 1 -25.44-25.44 25.44 25.44 0 0 1 25.44 25.44z" opacity=".51"/><path d="m109.06 36.75a24.93 24.93 0 1 1 -24.92-24.92 24.93 24.93 0 0 1 24.92 24.92z" opacity=".53"/><path d="m108.54 36.75a24.41 24.41 0 1 1 -24.4-24.4 24.4 24.4 0 0 1 24.4 24.4z" opacity=".55"/><path d="m108 36.75a23.89 23.89 0 1 1 -23.86-23.88 23.89 23.89 0 0 1 23.86 23.88z" opacity=".57"/><path d="m107.5 36.75a23.37 23.37 0 1 1 -23.36-23.36 23.36 23.36 0 0 1 23.36 23.36z" opacity=".59"/><path d="m107 36.75a22.85 22.85 0 1 1 -22.86-22.84 22.84 22.84 0 0 1 22.86 22.84z" opacity=".61"/><path d="m106.46 36.75a22.33 22.33 0 1 1 -22.32-22.32 22.32 22.32 0 0 1 22.32 22.32z" opacity=".63"/><path d="m106 36.75a21.81 21.81 0 1 1 -21.86-21.75 21.81 21.81 0 0 1 21.86 21.75z" opacity=".65"/><path d="m105.43 36.75a21.29 21.29 0 1 1 -21.29-21.28 21.29 21.29 0 0 1 21.29 21.28z" opacity=".67"/><path d="m104.91 36.75a20.77 20.77 0 1 1 -20.77-20.75 20.77 20.77 0 0 1 20.77 20.75z" opacity=".69"/><path d="m104.39 36.75a20.25 20.25 0 1 1 -20.25-20.25 20.25 20.25 0 0 1 20.25 20.25z" opacity=".71"/><path d="m103.87 36.75a19.73 19.73 0 1 1 -19.73-19.75 19.73 19.73 0 0 1 19.73 19.75z" opacity=".73"/><path d="m103.35 36.75a19.21 19.21 0 1 1 -19.21-19.21 19.21 19.21 0 0 1 19.21 19.21z" opacity=".75"/><path d="m102.83 36.75a18.69 18.69 0 1 1 -18.69-18.69 18.69 18.69 0 0 1 18.69 18.69z" opacity=".76"/><path d="m102.31 36.75a18.17 18.17 0 1 1 -18.17-18.17 18.17 18.17 0 0 1 18.17 18.17z" opacity=".78"/><path d="m101.79 36.75a17.65 17.65 0 1 1 -17.65-17.65 17.65 17.65 0 0 1 17.65 17.65z" opacity=".8"/><path d="m101.27 36.75a17.13 17.13 0 1 1 -17.13-17.13 17.12 17.12 0 0 1 17.13 17.13z" opacity=".82"/><path d="m100.75 36.75a16.61 16.61 0 1 1 -16.61-16.61 16.62 16.62 0 0 1 16.61 16.61z" opacity=".84"/><path d="m100.23 36.75a16.09 16.09 0 1 1 -16.09-16.09 16.09 16.09 0 0 1 16.09 16.09z" opacity=".86"/><path d="m99.71 36.75a15.58 15.58 0 1 1 -15.57-15.57 15.57 15.57 0 0 1 15.57 15.57z" opacity=".88"/><path d="m99.19 36.75a15.06 15.06 0 1 1 -15-15 15.05 15.05 0 0 1 15 15z" opacity=".9"/><path d="m98.67 36.75a14.54 14.54 0 1 1 -14.53-14.53 14.53 14.53 0 0 1 14.53 14.53z" opacity=".92"/><path d="m98.15 36.75a14 14 0 1 1 -14-14 14 14 0 0 1 14 14z" opacity=".94"/><path d="m97.63 36.75a13.5 13.5 0 1 1 -13.49-13.49 13.49 13.49 0 0 1 13.49 13.49z" opacity=".96"/><path d="m97.11 36.75a13 13 0 1 1 -13-13 13 13 0 0 1 13 13z" opacity=".98"/><path d="m96.6 36.75a12.46 12.46 0 1 1 -12.46-12.45 12.46 12.46 0 0 1 12.46 12.45z"/></g><g fill="#b2b2b2"><path d="m112.66 36.75a28.53 28.53 0 1 1 -28.52-28.53 28.52 28.52 0 0 1 28.52 28.53z" opacity="0"/><path d="m112.28 36.75a28.15 28.15 0 1 1 -28.14-28.15 28.14 28.14 0 0 1 28.14 28.15z" opacity=".02"/><path d="m111.9 36.75a27.77 27.77 0 1 1 -27.76-27.75 27.76 27.76 0 0 1 27.76 27.75z" opacity=".04"/><path d="m111.52 36.75a27.39 27.39 0 1 1 -27.38-27.38 27.38 27.38 0 0 1 27.38 27.38z" opacity=".06"/><path d="m111.14 36.75a27 27 0 1 1 -27-27 27 27 0 0 1 27 27z" opacity=".08"/><path d="m110.76 36.75a26.63 26.63 0 1 1 -26.62-26.62 26.62 26.62 0 0 1 26.62 26.62z" opacity=".1"/><path d="m110.38 36.75a26.25 26.25 0 1 1 -26.24-26.24 26.24 26.24 0 0 1 26.24 26.24z" opacity=".12"/><path d="m110 36.75a25.87 25.87 0 1 1 -25.86-25.86 25.86 25.86 0 0 1 25.86 25.86z" opacity=".14"/><path d="m109.62 36.75a25.49 25.49 0 1 1 -25.48-25.48 25.48 25.48 0 0 1 25.48 25.48z" opacity=".16"/><path d="m109.24 36.75a25.11 25.11 0 1 1 -25.1-25.1 25.11 25.11 0 0 1 25.1 25.1z" opacity=".18"/><path d="m108.86 36.75a24.73 24.73 0 1 1 -24.72-24.75 24.73 24.73 0 0 1 24.72 24.75z" opacity=".2"/><path d="m108.48 36.75a24.35 24.35 0 1 1 -24.34-24.34 24.35 24.35 0 0 1 24.34 24.34z" opacity=".22"/><path d="m108.1 36.75a24 24 0 1 1 -24-24 24 24 0 0 1 24 24z" opacity=".24"/><path d="m107.72 36.75a23.58 23.58 0 1 1 -23.58-23.58 23.59 23.59 0 0 1 23.58 23.58z" opacity=".25"/><path d="m107.34 36.75a23.2 23.2 0 1 1 -23.2-23.2 23.2 23.2 0 0 1 23.2 23.2z" opacity=".27"/><path d="m107 36.75a22.82 22.82 0 1 1 -22.86-22.82 22.82 22.82 0 0 1 22.86 22.82z" opacity=".29"/><path d="m106.58 36.75a22.44 22.44 0 1 1 -22.44-22.44 22.44 22.44 0 0 1 22.44 22.44z" opacity=".31"/><path d="m106.2 36.75a22.06 22.06 0 1 1 -22.06-22.06 22.06 22.06 0 0 1 22.06 22.06z" opacity=".33"/><path d="m105.82 36.75a21.68 21.68 0 1 1 -21.68-21.68 21.68 21.68 0 0 1 21.68 21.68z" opacity=".35"/><path d="m105.44 36.75a21.3 21.3 0 1 1 -21.3-21.3 21.3 21.3 0 0 1 21.3 21.3z" opacity=".37"/><path d="m105.05 36.75a20.92 20.92 0 1 1 -20.91-20.92 20.92 20.92 0 0 1 20.91 20.92z" opacity=".39"/><path d="m104.67 36.75a20.54 20.54 0 1 1 -20.53-20.53 20.54 20.54 0 0 1 20.53 20.53z" opacity=".41"/><path d="m104.29 36.75a20.16 20.16 0 1 1 -20.15-20.15 20.16 20.16 0 0 1 20.15 20.15z" opacity=".43"/><path d="m103.91 36.75a19.78 19.78 0 1 1 -19.77-19.75 19.78 19.78 0 0 1 19.77 19.75z" opacity=".45"/><path d="m103.53 36.75a19.4 19.4 0 1 1 -19.39-19.39 19.4 19.4 0 0 1 19.39 19.39z" opacity=".47"/><path d="m103.15 36.75a19 19 0 1 1 -19-19 19 19 0 0 1 19 19z" opacity=".49"/><path d="m102.77 36.75a18.64 18.64 0 1 1 -18.63-18.63 18.64 18.64 0 0 1 18.63 18.63z" opacity=".51"/><path d="m102.39 36.75a18.26 18.26 0 1 1 -18.25-18.25 18.26 18.26 0 0 1 18.25 18.25z" opacity=".53"/><path d="m102 36.75a17.88 17.88 0 1 1 -17.86-17.87 17.88 17.88 0 0 1 17.86 17.87z" opacity=".55"/><path d="m101.63 36.75a17.5 17.5 0 1 1 -17.49-17.49 17.5 17.5 0 0 1 17.49 17.49z" opacity=".57"/><path d="m101.25 36.75a17.12 17.12 0 1 1 -17.11-17.11 17.12 17.12 0 0 1 17.11 17.11z" opacity=".59"/><path d="m100.87 36.75a16.74 16.74 0 1 1 -16.73-16.75 16.74 16.74 0 0 1 16.73 16.75z" opacity=".61"/><path d="m100.49 36.75a16.35 16.35 0 1 1 -16.35-16.35 16.36 16.36 0 0 1 16.35 16.35z" opacity=".63"/><path d="m100.11 36.75a16 16 0 1 1 -16-16 16 16 0 0 1 16 16z" opacity=".65"/><path d="m99.73 36.75a15.59 15.59 0 1 1 -15.59-15.59 15.6 15.6 0 0 1 15.59 15.59z" opacity=".67"/><path d="m99.35 36.75a15.21 15.21 0 1 1 -15.21-15.21 15.22 15.22 0 0 1 15.21 15.21z" opacity=".69"/><path d="m99 36.75a14.83 14.83 0 1 1 -14.86-14.83 14.84 14.84 0 0 1 14.86 14.83z" opacity=".71"/><path d="m98.59 36.75a14.45 14.45 0 1 1 -14.45-14.45 14.46 14.46 0 0 1 14.45 14.45z" opacity=".73"/><path d="m98.21 36.75a14.07 14.07 0 1 1 -14.07-14.07 14.08 14.08 0 0 1 14.07 14.07z" opacity=".75"/><path d="m97.83 36.75a13.69 13.69 0 1 1 -13.69-13.69 13.69 13.69 0 0 1 13.69 13.69z" opacity=".76"/><path d="m97.45 36.75a13.31 13.31 0 1 1 -13.31-13.3 13.31 13.31 0 0 1 13.31 13.3z" opacity=".78"/><path d="m97.07 36.75a12.93 12.93 0 1 1 -12.93-12.92 12.93 12.93 0 0 1 12.93 12.92z" opacity=".8"/><path d="m96.68 36.75a12.55 12.55 0 1 1 -12.54-12.54 12.54 12.54 0 0 1 12.54 12.54z" opacity=".82"/><path d="m96.3 36.75a12.17 12.17 0 1 1 -12.16-12.16 12.16 12.16 0 0 1 12.16 12.16z" opacity=".84"/><path d="m95.92 36.75a11.79 11.79 0 1 1 -11.78-11.75 11.78 11.78 0 0 1 11.78 11.75z" opacity=".86"/><path d="m95.54 36.75a11.41 11.41 0 1 1 -11.4-11.4 11.4 11.4 0 0 1 11.4 11.4z" opacity=".88"/><path d="m95.16 36.75a11 11 0 1 1 -11-11 11 11 0 0 1 11 11z" opacity=".9"/><path d="m94.78 36.75a10.65 10.65 0 1 1 -10.64-10.64 10.64 10.64 0 0 1 10.64 10.64z" opacity=".92"/><path d="m94.4 36.75a10.27 10.27 0 1 1 -10.26-10.26 10.26 10.26 0 0 1 10.26 10.26z" opacity=".94"/><path d="m94 36.75a9.89 9.89 0 1 1 -9.88-9.88 9.88 9.88 0 0 1 9.88 9.88z" opacity=".96"/><path d="m93.64 36.75a9.51 9.51 0 1 1 -9.5-9.5 9.5 9.5 0 0 1 9.5 9.5z" opacity=".98"/><path d="m93.26 36.75a9.13 9.13 0 1 1 -9.12-9.12 9.12 9.12 0 0 1 9.12 9.12z"/></g><path d="m111.41 23.76a36.7 36.7 0 1 1 -36.7-36.69 36.69 36.69 0 0 1 36.7 36.69z" fill="url(#a)"/><path d="m110.32 26.4c-.64-20.4-14.65-30.19-14.65-30.19.57 4.06-8.23 3.24-8.23 3.24s22.24 6.56 22.88 27z" fill="#8c8c8c"/><path d="m100.33 24.22c-6.26 10.31-43.61-12.37-37.33-22.68a21.85 21.85 0 1 1 37.35 22.68z" fill="#b2b2b2" opacity="0"/><path d="m100.17 23.79c-6.17 10.15-42.9-12.16-36.74-22.31a21.49 21.49 0 0 1 36.74 22.31z" fill="#b2b2b2" opacity=".02"/><path d="m100 23.37c-6.06 10-42.19-12-36.13-21.94a21.13 21.13 0 1 1 36.13 21.94z" fill="#b2b2b2" opacity=".04"/><path d="m99.85 22.94c-5.95 9.81-41.48-11.76-35.52-21.57a20.78 20.78 0 0 1 35.52 21.57z" fill="#b2b2b2" opacity=".06"/><path d="m99.7 22.52c-5.86 9.64-40.77-11.52-34.92-21.21a20.43 20.43 0 0 1 34.92 21.21z" fill="#b2b2b2" opacity=".08"/><path d="m99.54 22.09c-5.76 9.47-40.06-11.36-34.31-20.83a20.07 20.07 0 1 1 34.31 20.83z" fill="#b2b2b2" opacity=".1"/><path d="m99.38 21.66c-5.65 9.34-39.38-11.15-33.7-20.46a19.71 19.71 0 0 1 33.7 20.46z" fill="#b2b2b2" opacity=".12"/><path d="m99.22 21.24c-5.55 9.13-38.63-11-33.08-20.09a19.35 19.35 0 1 1 33.08 20.09z" fill="#b2b2b2" opacity=".14"/><path d="m99.06 20.81c-5.44 9-37.92-10.75-32.47-19.72a19 19 0 1 1 32.47 19.72z" fill="#b2b2b2" opacity=".16"/><path d="m98.91 20.39c-5.35 8.8-37.22-10.56-31.91-19.39a18.64 18.64 0 0 1 31.91 19.39z" fill="#b2b2b2" opacity=".18"/><path d="m98.75 20c-5.25 8.59-36.5-10.39-31.26-19a18.29 18.29 0 0 1 31.26 19z" fill="#b2b2b2" opacity=".2"/><path d="m98.59 19.53c-5.14 8.47-35.79-10.14-30.65-18.61a17.93 17.93 0 1 1 30.65 18.61z" fill="#b2b2b2" opacity=".22"/><path d="m98.43 19.11c-5 8.29-35.08-9.95-30-18.24a17.57 17.57 0 1 1 30 18.24z" fill="#b2b2b2" opacity=".24"/><path d="m98.27 18.68c-4.93 8.13-34.37-9.74-29.43-17.87a17.22 17.22 0 1 1 29.43 17.87z" fill="#b2b2b2" opacity=".25"/><path d="m98.11 18.26c-4.83 8-33.65-9.55-28.82-17.51a16.86 16.86 0 1 1 28.82 17.51z" fill="#b2b2b2" opacity=".27"/><path d="m98 17.83c-4.78 7.79-33-9.34-28.26-17.13a16.51 16.51 0 0 1 28.26 17.13z" fill="#b2b2b2" opacity=".29"/><path d="m97.8 17.41c-4.63 7.59-32.24-9.15-27.61-16.77a16.15 16.15 0 1 1 27.61 16.77z" fill="#b2b2b2" opacity=".31"/><path d="m97.64 17c-4.53 7.44-31.52-9-27-16.41a15.79 15.79 0 1 1 27 16.41z" fill="#b2b2b2" opacity=".33"/><path d="m97.48 16.55c-4.42 7.29-30.81-8.73-26.39-16a15.44 15.44 0 0 1 26.39 16z" fill="#b2b2b2" opacity=".35"/><path d="m97.32 16.13c-4.32 7.12-30.1-8.54-25.77-15.66a15.08 15.08 0 1 1 25.77 15.66z" fill="#b2b2b2" opacity=".37"/><path d="m97.17 15.7c-4.23 6.95-29.4-8.33-25.17-15.28a14.72 14.72 0 0 1 25.17 15.28z" fill="#b2b2b2" opacity=".39"/><path d="m97 15.28c-4.11 6.78-28.67-8.14-24.55-14.92a14.37 14.37 0 0 1 24.55 14.92z" fill="#b2b2b2" opacity=".41"/><path d="m96.85 14.85c-4 6.62-28-7.93-23.95-14.54a14 14 0 1 1 23.95 14.54z" fill="#b2b2b2" opacity=".43"/><path d="m96.69 14.42c-3.92 6.45-27.26-7.73-23.34-14.17a13.65 13.65 0 0 1 23.34 14.17z" fill="#b2b2b2" opacity=".45"/><path d="m96.53 14c-3.81 6.28-26.53-7.53-22.73-13.81a13.3 13.3 0 1 1 22.73 13.81z" fill="#b2b2b2" opacity=".47"/><path d="m96.37 13.57c-3.71 6.11-25.83-7.32-22.12-13.43a12.94 12.94 0 1 1 22.12 13.43z" fill="#b2b2b2" opacity=".49"/><path d="m96.22 13.15c-3.61 5.94-25.13-7.15-21.52-13.07a12.59 12.59 0 0 1 21.52 13.07z" fill="#b2b2b2" opacity=".51"/><path d="m96.06 12.72c-3.51 5.78-24.41-6.92-20.91-12.72a12.23 12.23 0 1 1 20.91 12.72z" fill="#b2b2b2" opacity=".53"/><path d="m95.9 12.29c-3.41 5.61-23.7-6.72-20.3-12.29a11.87 11.87 0 1 1 20.3 12.29z" fill="#b2b2b2" opacity=".55"/><path d="m95.74 11.87c-3.3 5.44-23-6.52-19.69-12a11.52 11.52 0 0 1 19.69 12z" fill="#b2b2b2" opacity=".57"/><path d="m95.58 11.44c-3.2 5.27-22.28-6.31-19.08-11.58a11.16 11.16 0 1 1 19.08 11.58z" fill="#b2b2b2" opacity=".59"/><path d="m95.43 11c-3.1 5.12-21.57-6.1-18.43-11.2a10.81 10.81 0 1 1 18.43 11.2z" fill="#b2b2b2" opacity=".61"/><path d="m95.27 10.59c-3 4.94-20.86-5.91-17.86-10.84a10.45 10.45 0 0 1 17.86 10.84z" fill="#b2b2b2" opacity=".63"/><path d="m95.11 10.17c-2.9 4.76-20.11-5.72-17.25-10.48a10.09 10.09 0 1 1 17.25 10.48z" fill="#b2b2b2" opacity=".65"/><path d="m95 9.74c-2.84 4.6-19.48-5.51-16.69-10.11a9.74 9.74 0 0 1 16.69 10.11z" fill="#b2b2b2" opacity=".67"/><path d="m94.79 9.31c-2.69 4.43-18.72-5.31-16.03-9.73a9.38 9.38 0 1 1 16 9.73z" fill="#b2b2b2" opacity=".69"/><path d="m94.64 8.89c-2.59 4.26-18-5.11-15.43-9.37a9 9 0 1 1 15.43 9.37z" fill="#b2b2b2" opacity=".71"/><path d="m94.48 8.46c-2.49 4.1-17.31-4.9-14.82-9a8.67 8.67 0 0 1 14.82 9z" fill="#b2b2b2" opacity=".73"/><path d="m94.32 8c-2.39 4-16.59-4.67-14.21-8.59a8.31 8.31 0 0 1 14.21 8.59z" fill="#b2b2b2" opacity=".75"/><path d="m94.16 7.61c-2.28 3.76-15.88-4.5-13.6-8.26a8 8 0 1 1 13.6 8.26z" fill="#b2b2b2" opacity=".76"/><path d="m94 7.18c-2.18 3.6-15.17-4.3-13-7.88a7.6 7.6 0 0 1 13 7.88z" fill="#b2b2b2" opacity=".78"/><path d="m93.84 6.76c-2.08 3.42-14.45-4.1-12.38-7.52a7.24 7.24 0 1 1 12.38 7.52z" fill="#b2b2b2" opacity=".8"/><path d="m93.69 6.33c-2 3.26-13.75-3.9-11.78-7.14a6.89 6.89 0 1 1 11.78 7.14z" fill="#b2b2b2" opacity=".82"/><path d="m93.53 5.91c-1.88 3.09-13.04-3.7-11.16-6.78a6.53 6.53 0 0 1 11.16 6.78z" fill="#b2b2b2" opacity=".84"/><path d="m93.37 5.48c-1.77 2.92-12.32-3.48-10.55-6.41a6.17 6.17 0 1 1 10.55 6.41z" fill="#b2b2b2" opacity=".86"/><path d="m93.21 5.05c-1.67 2.76-11.61-3.29-9.94-6.05a5.81 5.81 0 1 1 9.94 6z" fill="#b2b2b2" opacity=".88"/><path d="m93.05 4.63c-1.57 2.58-10.9-3.09-9.33-5.63a5.46 5.46 0 1 1 9.33 5.67z" fill="#b2b2b2" opacity=".9"/><path d="m92.9 4.2c-1.47 2.42-10.2-2.89-8.73-5.3a5.11 5.11 0 0 1 8.73 5.3z" fill="#b2b2b2" opacity=".92"/><path d="m92.74 3.78c-1.37 2.22-9.48-2.69-8.12-4.93a4.75 4.75 0 1 1 8.12 4.93z" fill="#b2b2b2" opacity=".94"/><path d="m92.58 3.35c-1.26 2.08-8.77-2.49-7.51-4.56a4.39 4.39 0 0 1 7.51 4.56z" fill="#b2b2b2" opacity=".96"/><path d="m92.42 2.93c-1.16 1.91-8.06-2.29-6.9-4.19a4 4 0 1 1 6.9 4.19z" fill="#b2b2b2" opacity=".98"/><path d="m92.26 2.5c-1.06 1.74-7.34-2.08-6.26-3.82a3.68 3.68 0 0 1 6.26 3.82z" fill="#b2b2b2"/><path d="m78.37-2.45c14.67 5.16-4 58.3-18.7 53.14a28.17 28.17 0 1 1 18.7-53.14z" opacity="0"/><path d="m77.16-1.69c14.1 5-3.86 56-17.95 51a27 27 0 1 1 17.95-51z" fill="#0c0c0c" opacity=".05"/><path d="m76-.93c13.48 4.75-3.75 53.68-17.25 48.93a25.93 25.93 0 1 1 17.25-48.93z" fill="#181818" opacity=".1"/><path d="m74.76-.17c12.93 4.55-3.55 51.37-16.48 46.82a24.82 24.82 0 1 1 16.48-46.82z" fill="#242424" opacity=".14"/><path d="m73.56.59c12.35 4.34-3.39 49.06-15.74 44.72a23.7 23.7 0 0 1 15.74-44.72z" fill="#313131" opacity=".19"/><path d="m72.35 1.35c11.77 4.14-3.23 46.75-14.99 42.65a22.58 22.58 0 1 1 15-42.61z" fill="#3d3d3d" opacity=".24"/><path d="m71.15 2.11c11.19 3.89-3.07 44.45-14.25 40.51a21.47 21.47 0 1 1 14.25-40.51z" fill="#494949" opacity=".29"/><path d="m70 2.87c10.56 3.73-3 42.13-13.57 38.4a20.36 20.36 0 0 1 13.57-38.4z" fill="#555" opacity=".33"/><path d="m68.75 3.62c10.02 3.53-2.75 39.84-12.75 36.31a19.25 19.25 0 0 1 12.75-36.31z" fill="#616161" opacity=".38"/><path d="m67.54 4.38c9.46 3.33-2.54 37.53-12.03 34.2a18.13 18.13 0 0 1 12-34.2z" fill="#6d6d6d" opacity=".43"/><path d="m66.34 5.14c8.87 3.12-2.43 35.22-11.29 32.1a17 17 0 0 1 11.29-32.1z" fill="#797979" opacity=".48"/><path d="m65.14 5.9c8.28 2.92-2.27 32.91-10.55 30a15.9 15.9 0 0 1 10.55-30z" fill="#868686" opacity=".52"/><path d="m63.93 6.66c7.71 2.71-2.11 30.6-9.81 27.89a14.78 14.78 0 0 1 9.81-27.89z" fill="#929292" opacity=".57"/><path d="m62.73 7.42c7.13 2.51-1.95 28.29-9.07 25.78a13.66 13.66 0 0 1 9.07-25.78z" fill="#9e9e9e" opacity=".62"/><path d="m61.53 8.18c6.54 2.3-1.79 26-8.33 23.68a12.55 12.55 0 0 1 8.33-23.68z" fill="#aaa" opacity=".67"/><path d="m60.33 8.94c6 2.09-1.64 23.67-7.59 21.57a11.43 11.43 0 1 1 7.59-21.57z" fill="#b6b6b6" opacity=".71"/><path d="m59.12 9.7c5.38 1.89-1.47 21.36-6.84 19.47a10.32 10.32 0 1 1 6.84-19.47z" fill="#c2c2c2" opacity=".76"/><path d="m57.92 10.46c4.8 1.68-1.31 19.05-6.11 17.36a9.2 9.2 0 1 1 6.11-17.36z" fill="#cecece" opacity=".81"/><path d="m56.72 11.21c4.22 1.49-1.16 16.79-5.37 15.27a8.09 8.09 0 0 1 5.37-15.27z" fill="#dbdbdb" opacity=".86"/><path d="m55.52 12c3.63 1.28-1 14.44-4.63 13.16a7 7 0 1 1 4.63-13.16z" fill="#e7e7e7" opacity=".9"/><path d="m54.31 12.73c3.06 1.08-.83 12.13-3.88 11.06a5.86 5.86 0 1 1 3.88-11.06z" fill="#f3f3f3" opacity=".95"/><path d="m53.11 13.49c2.48.87-.67 9.82-3.15 9a4.74 4.74 0 1 1 3.15-9z" fill="#fff"/><path d="m111.41 23.76a36.7 36.7 0 1 1 -36.7-36.69 36.69 36.69 0 0 1 36.7 36.69z" fill="none"/></g></svg>