<svg xmlns="http://www.w3.org/2000/svg" height="512" viewBox="0 -46 512 512" width="512"><path d="M409 40c-21.879 0-44.336 7.164-61.656 19.238C331.464 23.738 295.774 0 256 0s-75.465 23.738-91.344 59.238C147.336 47.164 124.88 40 103 40c-38.727 0-75.047 22.21-92.527 56.578a9.998 9.998 0 0 0 4.379 13.445c4.921 2.504 10.941.543 13.445-4.378C42.402 77.918 71.723 60 103 60c22.117 0 44.805 8.844 59.21 23.082a10 10 0 0 0 16.668-4.445C188.427 44.109 220.142 20 256 20s67.574 24.11 77.121 58.637a10 10 0 0 0 16.668 4.445C364.195 68.844 386.883 60 409 60c44.988 0 83 36.637 83 80s-38.012 80-83 80a82.43 82.43 0 0 1-8.91-.488 9.978 9.978 0 0 0-7.766 2.492 10.013 10.013 0 0 0-3.324 7.445V320h-53v-50c0-5.523-4.477-10-10-10s-10 4.477-10 10v50h-50v-50c0-5.523-4.477-10-10-10s-10 4.477-10 10v50h-50v-50c0-5.523-4.477-10-10-10s-10 4.477-10 10v50h-53v-90.55c0-2.84-1.21-5.548-3.324-7.446a10.002 10.002 0 0 0-7.766-2.492c-34.527 3.777-68.183-14.82-83.613-45.157-2.5-4.925-8.524-6.886-13.445-4.378a9.998 9.998 0 0 0-4.38 13.445C27.954 217.789 64.274 240 103 240v170c0 5.523 4.477 10 10 10h286c5.523 0 10-4.477 10-10V240c54.227 0 103-43.8 103-100 0-56.203-48.777-100-103-100zM123 400v-60h266v60zm0 0" data-original="#000000" class="active-path"/><path d="M10 150c5.52 0 10-4.48 10-10s-4.48-10-10-10-10 4.48-10 10 4.48 10 10 10zm0 0" data-original="#000000" class="active-path"/></svg>