<svg viewBox="0 0 841.89 595.28" xmlns="http://www.w3.org/2000/svg" xmlns:xlink="http://www.w3.org/1999/xlink"><clipPath id="a"><path d="m0 0h841.89v595.28h-841.89z"/></clipPath><radialGradient id="b" cx="420.94" cy="297.64" gradientUnits="userSpaceOnUse" r="511.69"><stop offset="0" stop-color="#f5f5f5"/><stop offset="1" stop-color="#bebebe"/></radialGradient><linearGradient id="c" gradientUnits="userSpaceOnUse" x1="593.68" x2="301.18" y1="-1.79" y2="290.71"><stop offset="0" stop-color="#b3b3b3"/><stop offset="1" stop-color="#808080"/></linearGradient><linearGradient id="d" x1="1054.16" x2="761.66" xlink:href="#c" y1="-1.79" y2="290.71"/><linearGradient id="e" x1="-79.31" x2="84.19" xlink:href="#c" y1="156.17" y2="-7.33"/><linearGradient id="f" gradientUnits="userSpaceOnUse" x1="79.68" x2="444.93" y1="574.65" y2="209.4"><stop offset="0" stop-color="#666"/><stop offset="1" stop-color="#808080"/></linearGradient><linearGradient id="g" x1="834.14" x2="420.86" xlink:href="#f" y1="40.68" y2="453.96"/><g clip-path="url(#a)"><path d="m0 0h841.89v595.28h-841.89z" fill="url(#b)"/><path d="m-289.12 712.82 888.7-888.7h336.4l-888.71 888.7z" fill="url(#c)"/><path d="m171.35 712.82 888.71-888.7h336.39l-888.7 888.7z" fill="url(#d)"/><path d="m-804.16 712.82 888.71-888.7h336.39l-888.7 888.7z" fill="url(#e)"/><path d="m-226.68 712.82 888.7-888.7h336.4l-888.71 888.7z" fill="url(#f)"/><path d="m-6.2 712.82 888.71-888.7h336.4l-888.71 888.7z" fill="url(#g)"/></g></svg>