<svg viewBox="0 0 2200.61 888.7" xmlns="http://www.w3.org/2000/svg" xmlns:xlink="http://www.w3.org/1999/xlink"><clipPath id="a" transform="translate(804.16 175.89)"><path d="m0 0h841.89v595.28h-841.89z"/></clipPath><radialGradient id="b" cx="1225.1" cy="473.53" gradientUnits="userSpaceOnUse" r="511.69"><stop offset="0" stop-color="#f5f5f5"/><stop offset="1" stop-color="#bebebe"/></radialGradient><linearGradient id="c" gradientUnits="userSpaceOnUse" x1="1397.84" x2="1105.34" y1="174.09" y2="466.59"><stop offset="0" stop-color="#b3b3b3"/><stop offset="1" stop-color="#808080"/></linearGradient><linearGradient id="d" x1="1858.32" x2="1565.82" xlink:href="#c" y1="174.09" y2="466.59"/><linearGradient id="e" x1="724.84" x2="888.35" xlink:href="#c" y1="332.06" y2="168.56"/><linearGradient id="f" gradientUnits="userSpaceOnUse" x1="883.84" x2="1249.09" y1="750.54" y2="385.29"><stop offset="0" stop-color="#666"/><stop offset="1" stop-color="#808080"/></linearGradient><linearGradient id="g" x1="1638.3" x2="1225.02" xlink:href="#f" y1="216.56" y2="629.85"/><g clip-path="url(#a)"><path d="m804.16 175.89h841.89v595.28h-841.89z" fill="url(#b)"/><path d="m515.03 888.71 888.71-888.71h336.39l-888.7 888.71z" fill="url(#c)"/><path d="m975.51 888.71 888.7-888.71h336.4l-888.71 888.71z" fill="url(#d)"/><path d="m0 888.71 888.71-888.71h336.39l-888.71 888.71z" fill="url(#e)"/><path d="m577.47 888.71 888.71-888.71h336.39l-888.7 888.71z" fill="url(#f)"/><path d="m797.96 888.71 888.71-888.71h336.39l-888.7 888.71z" fill="url(#g)"/></g></svg>