<svg xmlns="http://www.w3.org/2000/svg" xmlns:xlink="http://www.w3.org/1999/xlink" viewBox="0 0 841.89 595.28">
  <defs>
    <style>
      .a {
        fill: none;
      }

      .b {
        isolation: isolate;
      }

      .c {
        clip-path: url(#a);
      }

      .d {
        fill: url(#b);
      }

      .e, .f, .g, .h, .i {
        mix-blend-mode: overlay;
      }

      .e {
        fill: url(#c);
      }

      .f {
        fill: url(#d);
      }

      .g {
        fill: url(#e);
      }

      .h {
        fill: url(#f);
      }

      .i {
        fill: url(#g);
      }
    </style>
    <clipPath id="a">
      <rect class="a" width="841.89" height="595.28"/>
    </clipPath>
    <radialGradient id="b" cx="420.94" cy="297.64" r="511.69" gradientUnits="userSpaceOnUse">
      <stop offset="0" stop-color="#f5f5f5"/>
      <stop offset="1" stop-color="#bebebe"/>
    </radialGradient>
    <linearGradient id="c" x1="593.68" y1="-1.79" x2="301.18" y2="290.71" gradientUnits="userSpaceOnUse">
      <stop offset="0" stop-color="#b3b3b3"/>
      <stop offset="1" stop-color="gray"/>
    </linearGradient>
    <linearGradient id="d" x1="1054.16" y1="-1.79" x2="761.66" y2="290.71" xlink:href="#c"/>
    <linearGradient id="e" x1="-79.31" y1="156.17" x2="84.19" y2="-7.33" xlink:href="#c"/>
    <linearGradient id="f" x1="79.68" y1="574.65" x2="444.93" y2="209.4" gradientUnits="userSpaceOnUse">
      <stop offset="0" stop-color="#666"/>
      <stop offset="1" stop-color="gray"/>
    </linearGradient>
    <linearGradient id="g" x1="834.14" y1="40.68" x2="420.86" y2="453.96" xlink:href="#f"/>
  </defs>
  <title>grey_minimal_background</title>
  <g class="b">
    <g class="c">
      <rect class="d" width="841.89" height="595.28"/>
      <g>
        <polygon class="e" points="-289.12 712.82 599.58 -175.88 935.98 -175.88 47.27 712.82 -289.12 712.82"/>
        <polygon class="f" points="171.35 712.82 1060.06 -175.88 1396.45 -175.88 507.75 712.82 171.35 712.82"/>
        <polygon class="g" points="-804.16 712.82 84.55 -175.88 420.94 -175.88 -467.76 712.82 -804.16 712.82"/>
        <polygon class="h" points="-226.68 712.82 662.02 -175.88 998.42 -175.88 109.71 712.82 -226.68 712.82"/>
        <polygon class="i" points="-6.2 712.82 882.51 -175.88 1218.91 -175.88 330.2 712.82 -6.2 712.82"/>
      </g>
    </g>
  </g>
</svg>
