<svg xmlns="http://www.w3.org/2000/svg" viewBox="0 0 512 512">
  <defs>
    <style>
      .a {
        fill: #916050;
      }

      .b {
        fill: #a06e5f;
      }

      .c {
        fill: #7db764;
      }

      .d {
        fill: #74a45f;
      }

      .e {
        fill: tan;
      }

      .f {
        fill: #e6c8a0;
      }
    </style>
  </defs>
  <title>favicon</title>
  <g>
    <path class="a" d="M196.77,267.5a87.3,87.3,0,0,1-72.8-39l-16.25-24.38a7.5,7.5,0,1,1,12.48-8.32l16.25,24.38a72.37,72.37,0,0,0,60.32,32.28H304a7.5,7.5,0,1,1,0,15Zm217.92,6.64a7.51,7.51,0,0,0-10.55,1.18l-22,27.48a52.25,52.25,0,0,1-41,19.7H180a7.5,7.5,0,0,0,0,15H341.16a67.16,67.16,0,0,0,52.71-25.33l22-27.48A7.52,7.52,0,0,0,414.69,274.14Z" transform="translate(0 0)"/>
    <path class="b" d="M320,89.09v129.7c0,71-58.1,127.84-129.12,128-.82,0-1.64,0-2.46,0-27.84.82-49.78,24.07-49.78,51.92h0A27.76,27.76,0,0,0,151,421.88l3.92,2.61a27.76,27.76,0,0,1,12.36,23.09V490H33.64V448.2a27.75,27.75,0,0,1,13.15-23.61l7.9-4.89A28.06,28.06,0,0,0,66.9,403.27c15.06-54.6,65.23-94.8,124.6-94.63,49.94.14,90.32-40.75,90.32-90.69V89.55c0-10.35,8.05-19.17,18.39-19.54A19.1,19.1,0,0,1,320,89.09Z" transform="translate(0 0)"/>
    <path class="c" d="M512,103h0a42.52,42.52,0,0,1-42.52,42.52H384.16A41.76,41.76,0,0,1,343,180H34.22A34.22,34.22,0,0,1,0,145.78H0a34.23,34.23,0,0,1,14.64-28.07L76.5,74.55A185.79,185.79,0,0,1,182.82,41.13h0A185.69,185.69,0,0,1,247,52.56,116.62,116.62,0,0,1,344.39,0h0a116.62,116.62,0,0,1,58.05,15.47l88.2,50.61A42.53,42.53,0,0,1,512,103Z" transform="translate(0 0)"/>
    <path class="d" d="M512,103h0a42.52,42.52,0,0,1-42.52,42.52H384.15A41.75,41.75,0,0,1,343,180H34.22A34.21,34.21,0,0,1,0,146.92,34.14,34.14,0,0,0,14.22,150H323a41.73,41.73,0,0,0,37.56-23.53,19.8,19.8,0,0,1,17.86-11h71A42.52,42.52,0,0,0,492,73h0a43.16,43.16,0,0,0-.49-6.35A42.53,42.53,0,0,1,512,103Z" transform="translate(0 0)"/>
    <path class="e" d="M247.43,512H43.8a27.54,27.54,0,0,1-27.53-27.53h0a27.51,27.51,0,0,1,16.82-25.36l68.68-29a122.42,122.42,0,0,1,47.68-9.66h0a122.48,122.48,0,0,1,70.1,22l40.8,28.45A22.59,22.59,0,0,1,270,489.43h0A22.56,22.56,0,0,1,247.43,512Z" transform="translate(0 0)"/>
    <path class="f" d="M219.55,442.47l20.32,14.17A23.21,23.21,0,0,1,240,459a22.56,22.56,0,0,1-22.57,22.56h-201a27.54,27.54,0,0,1,16.65-22.46l68.68-29a122.42,122.42,0,0,1,47.68-9.66h0A122.48,122.48,0,0,1,219.55,442.47Z" transform="translate(0 0)"/>
    <path class="c" d="M225.69,192h0a28,28,0,0,1-28,28H71.19A31.18,31.18,0,0,1,42,177.86L43.42,174a76.8,76.8,0,0,1,71.91-49.83h0a76.79,76.79,0,0,1,38.21,10.18l58.09,33.33A28,28,0,0,1,225.69,192Zm278.17,63.36-34.4-24a103.29,103.29,0,0,0-59.11-18.59h0a103.24,103.24,0,0,0-40.21,8.15L312.22,245.4A23.22,23.22,0,0,0,298,266.79h0A23.22,23.22,0,0,0,321.26,290H493a19,19,0,0,0,10.89-34.64Z" transform="translate(0 0)"/>
    <path class="d" d="M225.69,192a28,28,0,0,1-28,28H183.44a28,28,0,0,0-7.5-42.28l-58.09-33.33a76.79,76.79,0,0,0-38.21-10.18c-.76,0-1.51,0-2.26,0a76.65,76.65,0,0,1,38-10h0a76.86,76.86,0,0,1,38.22,10.18l58.08,33.33A28,28,0,0,1,225.69,192Zm278.17,63.36-34.4-24a103.29,103.29,0,0,0-59.11-18.59h0a103.1,103.1,0,0,0-26,3.34,103.07,103.07,0,0,1,33.13,15.25l34.4,24A19,19,0,0,1,441,290h52a19,19,0,0,0,10.89-34.64Z" transform="translate(0 0)"/>
  </g>
</svg>
